<svg width="217" height="289" viewBox="0 0 217 289" fill="none" xmlns="http://www.w3.org/2000/svg">
<g clip-path="url(#clip0_8_281)">
<path d="M2.08163 62.4769C-3.32975 83.0109 3.121 105.167 6.60211 126.405C9.46056 143.938 10.2505 161.929 8.94492 179.768C7.98802 193.023 5.85973 206.193 6.02471 219.513C6.08735 236.498 10.4447 252.991 18.4313 266.472C22.453 273.141 27.5027 278.655 33.2598 282.664C39.0169 286.673 45.3555 289.089 51.873 289.759C64.2466 290.698 76.1748 284.572 88.1689 280.794C99.7118 277.173 111.593 275.685 123.458 276.376C131.378 276.824 139.28 278.254 147.216 278.404C168.003 278.745 191.975 268.009 204.464 245.34C227.958 202.65 216.458 137.697 185.063 107.152C170.429 92.9149 152.66 84.7398 134.595 81.0471C121.677 78.4217 108.198 77.888 96.253 71.1217C83.0545 63.7149 73.0731 49.5418 61.0625 39.4242C38.9385 20.79 11.1721 28.0686 2.08163 62.4769Z" fill="#CDDDF9"/>
<g style="mix-blend-mode:multiply">
<path d="M185.772 250.292H25.5585V261.029H185.772V250.292Z" fill="#5A5A5A"/>
</g>
<path d="M153.403 124.804H32.3062V252.768H153.403V124.804Z" fill="#037EE6"/>
<path d="M178.678 124.804H149.163V252.768H178.678V124.804Z" fill="#0060C8"/>
<path d="M61.7884 124.805H32.3062L15.8081 100.962H45.2903L61.7884 124.805Z" fill="#329CFF"/>
<path d="M149.163 124.805H178.645L195.143 100.962H165.661L149.163 124.805Z" fill="#329CFF"/>
<path d="M114.054 166.513H32.3062V221.647H114.054V166.513Z" fill="white"/>
<path d="M96.418 177.015H38.79V181.348H96.418V177.015Z" fill="#037EE6"/>
<path d="M96.418 186.62H38.79V190.953H96.418V186.62Z" fill="#037EE6"/>
<path d="M66.6883 196.204H38.79V200.537H66.6883V196.204Z" fill="#037EE6"/>
<path d="M121.347 201.54C121.347 203.651 120.863 205.714 119.957 207.469C119.05 209.224 117.762 210.592 116.254 211.4C114.747 212.208 113.088 212.419 111.488 212.007C109.888 211.596 108.418 210.579 107.265 209.087C106.111 207.594 105.325 205.692 105.007 203.622C104.689 201.552 104.852 199.406 105.476 197.456C106.101 195.506 107.158 193.839 108.515 192.666C109.871 191.493 111.466 190.867 113.098 190.867C115.285 190.867 117.384 191.992 118.931 193.993C120.478 195.995 121.347 198.709 121.347 201.54V201.54Z" fill="#EBC7C7"/>
<path d="M82.774 73.4269L95.9725 100.941L117.255 83.8647C117.255 83.8647 133.126 73.4696 135.403 61.1321C137.845 47.6634 131.872 37.4391 122.732 34.6643C119.962 33.822 117.072 33.8926 114.328 34.8696C111.584 35.8467 109.074 37.6989 107.026 40.2567C106.077 36.7879 104.469 33.6836 102.35 31.2293C100.231 28.775 97.6695 27.0495 94.9001 26.2116C85.7437 23.4367 76.8841 29.1359 74.4424 42.6046C72.2151 54.9634 82.774 73.4269 82.774 73.4269Z" fill="#EBC7C7"/>
</g>
<defs>
<clipPath id="clip0_8_281">
<rect width="217" height="289" fill="white"/>
</clipPath>
</defs>
</svg>
